<mxfile host="app.diagrams.net" agent="Mozilla/5.0 (X11; Ubuntu; Linux x86_64; rv:139.0) Gecko/20100101 Firefox/139.0" version="27.1.6">
  <diagram name="Page-1" id="POaLV1qd_8ivgcaJ0k6t">
    <mxGraphModel dx="1356" dy="721" grid="1" gridSize="10" guides="1" tooltips="1" connect="1" arrows="1" fold="1" page="1" pageScale="1" pageWidth="850" pageHeight="1100" math="0" shadow="0">
      <root>
        <mxCell id="0" />
        <mxCell id="1" parent="0" />
        <mxCell id="lDjh93la92TDXTI0dgt4-59" value="" style="rounded=1;whiteSpace=wrap;html=1;strokeColor=none;strokeWidth=3;align=center;verticalAlign=middle;fontFamily=Helvetica;fontSize=12;fontColor=default;fillColor=#142037;" vertex="1" parent="1">
          <mxGeometry x="260" y="160" width="1031.25" height="400" as="geometry" />
        </mxCell>
        <mxCell id="lDjh93la92TDXTI0dgt4-60" value="" style="rounded=1;whiteSpace=wrap;html=1;strokeColor=#22D234;fillColor=#A2D2A4;strokeWidth=3;" vertex="1" parent="1">
          <mxGeometry x="290" y="320" width="987.5" height="80" as="geometry" />
        </mxCell>
        <mxCell id="lDjh93la92TDXTI0dgt4-61" style="edgeStyle=orthogonalEdgeStyle;rounded=0;orthogonalLoop=1;jettySize=auto;html=1;exitX=0.5;exitY=1;exitDx=0;exitDy=0;" edge="1" parent="1">
          <mxGeometry relative="1" as="geometry">
            <mxPoint x="360" y="320" as="sourcePoint" />
            <mxPoint x="360" y="320" as="targetPoint" />
          </mxGeometry>
        </mxCell>
        <mxCell id="lDjh93la92TDXTI0dgt4-62" value="" style="strokeWidth=2;html=1;shape=mxgraph.flowchart.annotation_2;align=left;labelPosition=right;pointerEvents=1;rounded=1;strokeColor=#22D234;verticalAlign=middle;fontFamily=Helvetica;fontSize=12;fontColor=default;fillColor=#A2D2A4;direction=south;" vertex="1" parent="1">
          <mxGeometry x="300" y="260" width="110" height="50" as="geometry" />
        </mxCell>
        <mxCell id="lDjh93la92TDXTI0dgt4-63" value="" style="strokeWidth=2;html=1;shape=mxgraph.flowchart.annotation_2;align=left;labelPosition=right;pointerEvents=1;rounded=1;strokeColor=#22D234;verticalAlign=middle;fontFamily=Helvetica;fontSize=12;fontColor=default;fillColor=#A2D2A4;direction=south;" vertex="1" parent="1">
          <mxGeometry x="680" y="260" width="105" height="50" as="geometry" />
        </mxCell>
        <mxCell id="lDjh93la92TDXTI0dgt4-64" value="&lt;font style=&quot;font-size: 23px;&quot;&gt;Keyword&lt;/font&gt;" style="rounded=1;whiteSpace=wrap;html=1;strokeColor=#22D234;strokeWidth=3;align=center;verticalAlign=middle;fontFamily=Helvetica;fontSize=12;fontColor=default;fillColor=#A2D2A4;" vertex="1" parent="1">
          <mxGeometry x="295" y="190" width="120" height="60" as="geometry" />
        </mxCell>
        <mxCell id="lDjh93la92TDXTI0dgt4-65" value="&lt;span style=&quot;color: rgb(179, 179, 179);&quot;&gt;&lt;font style=&quot;font-size: 23px;&quot;&gt;Document&lt;/font&gt;&lt;/span&gt;" style="text;html=1;align=center;verticalAlign=middle;resizable=0;points=[];autosize=1;strokeColor=none;fillColor=none;fontFamily=Helvetica;fontSize=12;fontColor=default;" vertex="1" parent="1">
          <mxGeometry x="285" y="400" width="130" height="40" as="geometry" />
        </mxCell>
        <mxCell id="lDjh93la92TDXTI0dgt4-66" value="" style="strokeWidth=2;html=1;shape=mxgraph.flowchart.annotation_2;align=left;labelPosition=right;pointerEvents=1;rounded=1;strokeColor=#22D234;verticalAlign=middle;fontFamily=Helvetica;fontSize=12;fontColor=default;fillColor=#A2D2A4;direction=south;" vertex="1" parent="1">
          <mxGeometry x="1120" y="260" width="145" height="50" as="geometry" />
        </mxCell>
        <mxCell id="lDjh93la92TDXTI0dgt4-67" value="&lt;font style=&quot;font-size: 23px;&quot;&gt;Keyword&lt;/font&gt;" style="rounded=1;whiteSpace=wrap;html=1;strokeColor=#22D234;strokeWidth=3;align=center;verticalAlign=middle;fontFamily=Helvetica;fontSize=12;fontColor=default;fillColor=#A2D2A4;" vertex="1" parent="1">
          <mxGeometry x="672.5" y="190" width="120" height="60" as="geometry" />
        </mxCell>
        <mxCell id="lDjh93la92TDXTI0dgt4-68" value="&lt;font style=&quot;font-size: 23px;&quot;&gt;Keyword&lt;/font&gt;" style="rounded=1;whiteSpace=wrap;html=1;strokeColor=#22D234;strokeWidth=3;align=center;verticalAlign=middle;fontFamily=Helvetica;fontSize=12;fontColor=default;fillColor=#A2D2A4;" vertex="1" parent="1">
          <mxGeometry x="1132.5" y="190" width="120" height="60" as="geometry" />
        </mxCell>
        <mxCell id="lDjh93la92TDXTI0dgt4-69" value="" style="strokeWidth=2;html=1;shape=mxgraph.flowchart.annotation_2;align=left;labelPosition=right;pointerEvents=1;rounded=1;strokeColor=#22D234;verticalAlign=middle;fontFamily=Helvetica;fontSize=12;fontColor=default;fillColor=#A2D2A4;direction=south;" vertex="1" parent="1">
          <mxGeometry x="920" y="260" width="80" height="50" as="geometry" />
        </mxCell>
        <mxCell id="lDjh93la92TDXTI0dgt4-70" value="" style="strokeWidth=2;html=1;shape=mxgraph.flowchart.annotation_2;align=left;labelPosition=right;pointerEvents=1;rounded=1;strokeColor=#22D234;verticalAlign=middle;fontFamily=Helvetica;fontSize=12;fontColor=default;fillColor=#A2D2A4;direction=north;" vertex="1" parent="1">
          <mxGeometry x="1070" y="410" width="110" height="50" as="geometry" />
        </mxCell>
        <mxCell id="lDjh93la92TDXTI0dgt4-71" value="" style="strokeWidth=2;html=1;shape=mxgraph.flowchart.annotation_2;align=left;labelPosition=right;pointerEvents=1;rounded=1;strokeColor=#22D234;verticalAlign=middle;fontFamily=Helvetica;fontSize=12;fontColor=default;fillColor=#A2D2A4;direction=north;" vertex="1" parent="1">
          <mxGeometry x="920" y="410" width="100" height="50" as="geometry" />
        </mxCell>
        <mxCell id="lDjh93la92TDXTI0dgt4-72" value="" style="strokeWidth=2;html=1;shape=mxgraph.flowchart.annotation_2;align=left;labelPosition=right;pointerEvents=1;rounded=1;strokeColor=#22D234;verticalAlign=middle;fontFamily=Helvetica;fontSize=12;fontColor=default;fillColor=#A2D2A4;direction=north;" vertex="1" parent="1">
          <mxGeometry x="530" y="410" width="110" height="50" as="geometry" />
        </mxCell>
        <mxCell id="lDjh93la92TDXTI0dgt4-73" value="" style="strokeWidth=2;html=1;shape=mxgraph.flowchart.annotation_2;align=left;labelPosition=right;pointerEvents=1;rounded=1;strokeColor=#22D234;verticalAlign=middle;fontFamily=Helvetica;fontSize=12;fontColor=default;fillColor=#A2D2A4;direction=south;" vertex="1" parent="1">
          <mxGeometry x="550" y="260" width="70" height="50" as="geometry" />
        </mxCell>
        <mxCell id="lDjh93la92TDXTI0dgt4-74" value="&lt;font style=&quot;font-size: 23px;&quot;&gt;Keyword&lt;/font&gt;" style="rounded=1;whiteSpace=wrap;html=1;strokeColor=#22D234;strokeWidth=3;align=center;verticalAlign=middle;fontFamily=Helvetica;fontSize=12;fontColor=default;fillColor=#A2D2A4;" vertex="1" parent="1">
          <mxGeometry x="525" y="190" width="120" height="60" as="geometry" />
        </mxCell>
        <mxCell id="lDjh93la92TDXTI0dgt4-75" value="&lt;font style=&quot;font-size: 23px;&quot;&gt;Keyword&lt;/font&gt;" style="rounded=1;whiteSpace=wrap;html=1;strokeColor=#22D234;strokeWidth=3;align=center;verticalAlign=middle;fontFamily=Helvetica;fontSize=12;fontColor=default;fillColor=#A2D2A4;" vertex="1" parent="1">
          <mxGeometry x="900" y="190" width="120" height="60" as="geometry" />
        </mxCell>
        <mxCell id="lDjh93la92TDXTI0dgt4-76" value="&lt;font style=&quot;font-size: 23px;&quot;&gt;Keyword&lt;/font&gt;" style="rounded=1;whiteSpace=wrap;html=1;strokeColor=#22D234;strokeWidth=3;align=center;verticalAlign=middle;fontFamily=Helvetica;fontSize=12;fontColor=default;fillColor=#A2D2A4;" vertex="1" parent="1">
          <mxGeometry x="525" y="470" width="120" height="60" as="geometry" />
        </mxCell>
        <mxCell id="lDjh93la92TDXTI0dgt4-77" value="&lt;font style=&quot;font-size: 23px;&quot;&gt;Keyword&lt;/font&gt;" style="rounded=1;whiteSpace=wrap;html=1;strokeColor=#22D234;strokeWidth=3;align=center;verticalAlign=middle;fontFamily=Helvetica;fontSize=12;fontColor=default;fillColor=#A2D2A4;" vertex="1" parent="1">
          <mxGeometry x="910" y="470" width="120" height="60" as="geometry" />
        </mxCell>
        <mxCell id="lDjh93la92TDXTI0dgt4-78" value="&lt;font style=&quot;font-size: 23px;&quot;&gt;Keyword&lt;/font&gt;" style="rounded=1;whiteSpace=wrap;html=1;strokeColor=#22D234;strokeWidth=3;align=center;verticalAlign=middle;fontFamily=Helvetica;fontSize=12;fontColor=default;fillColor=#A2D2A4;" vertex="1" parent="1">
          <mxGeometry x="1065" y="470" width="120" height="60" as="geometry" />
        </mxCell>
        <mxCell id="lDjh93la92TDXTI0dgt4-79" value="" style="rounded=1;whiteSpace=wrap;html=1;strokeColor=none;strokeWidth=3;align=center;verticalAlign=middle;fontFamily=Helvetica;fontSize=12;fontColor=default;fillColor=#22D234;" vertex="1" parent="1">
          <mxGeometry x="300" y="330" width="120" height="30" as="geometry" />
        </mxCell>
        <mxCell id="lDjh93la92TDXTI0dgt4-80" value="" style="rounded=1;whiteSpace=wrap;html=1;strokeColor=none;strokeWidth=3;align=center;verticalAlign=middle;fontFamily=Helvetica;fontSize=12;fontColor=default;fillColor=#22D234;" vertex="1" parent="1">
          <mxGeometry x="550" y="330" width="70" height="30" as="geometry" />
        </mxCell>
        <mxCell id="lDjh93la92TDXTI0dgt4-81" value="" style="rounded=1;whiteSpace=wrap;html=1;strokeColor=none;strokeWidth=3;align=center;verticalAlign=middle;fontFamily=Helvetica;fontSize=12;fontColor=default;fillColor=#22D234;" vertex="1" parent="1">
          <mxGeometry x="680" y="330" width="100" height="30" as="geometry" />
        </mxCell>
        <mxCell id="lDjh93la92TDXTI0dgt4-82" value="" style="rounded=1;whiteSpace=wrap;html=1;strokeColor=none;strokeWidth=3;align=center;verticalAlign=middle;fontFamily=Helvetica;fontSize=12;fontColor=default;fillColor=#22D234;" vertex="1" parent="1">
          <mxGeometry x="910" y="330" width="90" height="30" as="geometry" />
        </mxCell>
        <mxCell id="lDjh93la92TDXTI0dgt4-83" value="" style="rounded=1;whiteSpace=wrap;html=1;strokeColor=none;strokeWidth=3;align=center;verticalAlign=middle;fontFamily=Helvetica;fontSize=12;fontColor=default;fillColor=#22D234;" vertex="1" parent="1">
          <mxGeometry x="1120" y="330" width="150" height="30" as="geometry" />
        </mxCell>
        <mxCell id="lDjh93la92TDXTI0dgt4-84" value="" style="rounded=1;whiteSpace=wrap;html=1;strokeColor=none;strokeWidth=3;align=center;verticalAlign=middle;fontFamily=Helvetica;fontSize=12;fontColor=default;fillColor=#22D234;" vertex="1" parent="1">
          <mxGeometry x="1075" y="360" width="105" height="30" as="geometry" />
        </mxCell>
        <mxCell id="lDjh93la92TDXTI0dgt4-85" value="" style="rounded=1;whiteSpace=wrap;html=1;strokeColor=none;strokeWidth=3;align=center;verticalAlign=middle;fontFamily=Helvetica;fontSize=12;fontColor=default;fillColor=#22D234;" vertex="1" parent="1">
          <mxGeometry x="530" y="360" width="120" height="30" as="geometry" />
        </mxCell>
        <mxCell id="lDjh93la92TDXTI0dgt4-87" value="" style="rounded=1;whiteSpace=wrap;html=1;strokeColor=none;strokeWidth=3;align=center;verticalAlign=middle;fontFamily=Helvetica;fontSize=12;fontColor=default;fillColor=#22D234;" vertex="1" parent="1">
          <mxGeometry x="920" y="360" width="90" height="30" as="geometry" />
        </mxCell>
        <mxCell id="lDjh93la92TDXTI0dgt4-88" value="&lt;font style=&quot;font-size: 23px;&quot;&gt;Elon Musk has shared a photo of the spacesuit designed by SpaceX. This is the second image shared of the new design and the first to feature the spacesuit’s full-body look.&lt;/font&gt;" style="text;html=1;align=center;verticalAlign=middle;whiteSpace=wrap;rounded=0;" vertex="1" parent="1">
          <mxGeometry x="278.75" y="325" width="1010" height="70" as="geometry" />
        </mxCell>
      </root>
    </mxGraphModel>
  </diagram>
</mxfile>
